# xmcd
#
# Track frame offsets: 
#        150
#        16476
#        31082
#        56767
#
# Disc length: 1114 seconds
#
# Revision: 1
# Processed by: cddbd v1.5.2PL0 Copyright (c) Steve Scherf et al.
# Submitted via: ExactAudioCopy v0.99pb4
#
DISCID=29045804
DTITLE=Kosmonova - Discover The World
DYEAR=2000
DGENRE=Trance
TTITLE0=Discover The World (Short Version)
TTITLE1=Discover The World (Dedonatis Short Cut)
TTITLE2=Discover The World (Extended Mix)
TTITLE3=Discover The World (Dedonatis Mix)
EXTD=
EXTT0=
EXTT1=
EXTT2=
EXTT3=
PLAYORDER=
